<?xml version="1.0" standalone="no"?>
<!DOCTYPE svg PUBLIC "-//W3C//DTD SVG 20010904//EN"
 "http://www.w3.org/TR/2001/REC-SVG-20010904/DTD/svg10.dtd">
<svg version="1.0" xmlns="http://www.w3.org/2000/svg"
 width="700.000000pt" height="700.000000pt" viewBox="0 0 700.000000 700.000000"
 preserveAspectRatio="xMidYMid meet">
<metadata>
Created by potrace 1.11, written by Peter Selinger 2001-2013
</metadata>
<g transform="translate(0.000000,700.000000) scale(0.100000,-0.100000)"
fill="#000000" stroke="none">
<path d="M1249 6854 c-58 -17 -123 -85 -140 -146 -10 -33 -12 -585 -13 -2461
l-1 -2417 63 0 c80 -1 297 -1 365 0 l53 0 -1 1413 c-1 776 1 1418 3 1424 3 8
19 0 44 -22 85 -72 200 -107 357 -107 121 0 204 21 284 72 26 16 51 30 56 30
4 0 7 -17 6 -38 l-1 -39 425 0 426 0 -2 121 c0 67 -2 127 -2 134 -1 9 -53 12
-226 12 l-225 0 -1 23 c-1 23 -1 540 0 569 1 16 18 18 173 20 l173 3 0 133 1
132 -173 0 c-173 0 -173 0 -174 23 -1 28 -1 445 0 473 1 20 5 20 214 19 116 0
218 1 225 3 9 3 13 20 12 51 -1 25 -1 58 -1 74 l1 27 1120 0 1120 0 0 -1560 0
-1560 -127 -1 c-174 -2 -203 0 -241 18 -18 9 -198 180 -400 380 -365 362 -441
428 -549 474 -26 11 -57 24 -68 29 -48 22 -148 45 -244 56 -58 7 -1247 8
-1271 1 -8 -2 -28 -7 -45 -12 -39 -10 -103 -57 -127 -92 -21 -32 -479 -950
-500 -1003 -33 -81 -19 -180 33 -243 92 -111 261 -114 364 -7 15 16 123 219
240 451 l212 421 228 -1 c125 0 230 -2 232 -5 4 -4 -255 -528 -446 -901 -56
-109 -82 -177 -95 -245 -2 -14 -19 -95 -36 -180 -18 -85 -34 -166 -36 -180 -3
-14 -7 -32 -9 -40 -2 -8 -7 -28 -9 -45 -3 -16 -26 -124 -51 -240 -25 -115 -51
-234 -57 -262 l-11 -53 -481 -1 c-626 0 -623 0 -691 -34 -59 -29 -99 -76 -110
-130 -6 -31 -8 -305 -2 -311 2 -2 343 -4 759 -4 783 -1 799 -1 879 40 72 37
130 125 228 350 21 48 134 299 192 427 11 24 21 43 24 43 7 0 80 -114 637
-995 118 -187 269 -425 335 -530 127 -200 181 -271 223 -288 28 -11 450 -17
450 -6 0 4 -19 44 -41 90 -23 46 -77 156 -119 244 -43 88 -130 268 -195 400
-293 600 -505 1034 -631 1293 l-103 212 18 43 c29 66 234 498 416 874 l40 83
264 -257 c145 -142 282 -270 305 -286 76 -51 117 -57 385 -57 l246 0 -1 -1308
c0 -719 1 -1312 3 -1318 3 -8 75 -11 238 -11 206 0 234 2 237 16 6 26 1 6494
-5 6516 -22 83 -65 135 -142 171 l-50 24 -2205 -1 c-1876 0 -2212 -3 -2251
-15z m770 -639 c38 -19 69 -85 76 -160 12 -112 13 -120 22 -118 33 6 135 17
168 18 l39 0 1 -248 c0 -136 -3 -247 -6 -247 -3 0 -24 19 -45 43 -21 24 -97
94 -169 156 -226 197 -282 272 -288 382 -4 70 10 114 49 156 27 28 38 33 78
33 26 0 60 -7 75 -15z m-288 -716 c35 -31 80 -69 99 -85 79 -65 154 -143 196
-200 70 -98 91 -229 50 -316 -30 -64 -120 -81 -192 -37 -58 35 -103 157 -107
286 -1 39 -3 43 -27 43 -14 0 -43 -5 -65 -9 -22 -5 -55 -11 -74 -13 l-34 -3 1
220 c0 121 1 229 1 240 1 16 9 12 44 -25 24 -25 72 -70 108 -101z"/>
<path d="M4210 5404 c-36 -7 -101 -32 -145 -54 -355 -179 -431 -660 -150 -945
155 -156 375 -215 590 -156 90 25 147 54 220 115 125 102 200 251 212 420 21
299 -177 560 -473 621 -88 18 -160 18 -254 -1z"/>
<path d="M1109 845 c-7 -2 -2 -698 5 -702 7 -5 354 -7 437 -4 15 1 16 36 15
354 l-1 352 -227 0 c-126 1 -229 1 -229 0z"/>
</g>
</svg>
